# xmcd
#
# Track frame offsets:
# 150
# 18900
# 37507
# 52685
# 69827
# 86772
# 101008
# 118193
# 130854
# 153292
# 169177
# 184102
# 200161
# 214880
# 234578
# 248366
# 261321
# 277543
# 288523
# 302815
# 319866
#
# Disc length: 4392 seconds
#
#
# Revision: 0
# Processed by: cddbd v1.5.2PL0 Copyright (c) Steve Scherf et al.
# Submitted via: FreeRIP 2.951 
#
DISCID=1a112615
DTITLE=Freddie King - Burglar
DYEAR=1974
DGENRE=Blues
TTITLE0=Pack It Up
TTITLE1=My Credit Didn't Go Through
TTITLE2=I Got The Same Old Blues
TTITLE3=Only Getting Second Best
TTITLE4=Texas Flyer
TTITLE5=Pulp Wood
TTITLE6=She's A Burglar
TTITLE7=Sugar Sweet
TTITLE8=I Had A Dream
TTITLE9=C'mon (Let The Good Times Roll)
TTITLE10=Yonders Wall
TTITLE11=Stumble
TTITLE12=I Wonder Why
TTITLE13=Stormy Monday
TTITLE14=I Don't Know
TTITLE15=What'd I Say
TTITLE16=Ain't Nobody's Business What We Do
TTITLE17=You Don't Have To Go
TTITLE18=Woke Up This Morning
TTITLE19=The Things I Used To Do
TTITLE20=My Feeling For The Blues
EXTD=
EXTT0=
EXTT1=
EXTT2=
EXTT3=
EXTT4=
EXTT5=
EXTT6=
EXTT7=
EXTT8=
EXTT9=
EXTT10=
EXTT11=
EXTT12=
EXTT13=
EXTT14=
EXTT15=
EXTT16=
EXTT17=
EXTT18=
EXTT19=
EXTT20=
PLAYORDER=
